<svg xmlns="http://www.w3.org/2000/svg" version="1.0" width="140px" height="245px" viewBox="0 0 1400 2450" preserveAspectRatio="xMidYMid meet">
<g id="layer101" fill="#397a8b" stroke="none">
 <path d="M653 1164 c-16 -12 -23 -27 -23 -51 0 -71 86 -111 128 -59 19 24 24 76 6 66 -5 -3 -8 -9 -6 -13 1 -4 -3 -17 -9 -28 -11 -21 -12 -20 -45 12 -38 37 -39 51 -5 59 12 3 22 10 22 15 -1 17 -44 16 -68 -1z"/>
 
 </g>
<g id="layer102" fill="#a9645b" stroke="none">
 
 
 
 
 
 <path d="M754 1075 c-4 -9 -18 -21 -32 -26 -18 -7 -22 -13 -15 -20 8 -8 17 -8 32 0 26 15 45 47 31 56 -6 3 -13 -1 -16 -10z"/>
 
 
 
 
 </g>
<g id="layer103" fill="#3d94b1" stroke="none">
 
 
 
 
 
 
 
 
 <path d="M667 1153 c-20 -23 -24 -37 -12 -41 6 -2 26 -19 46 -38 l36 -35 22 27 c33 42 4 104 -49 104 -15 0 -34 -8 -43 -17z"/>
 
 
 </g>
<g id="layer104" fill="#eea48a" stroke="none">
 
 
 
 <path d="M302 1759 c-17 -42 -44 -190 -38 -204 3 -8 1 -17 -4 -20 -15 -9 -12 -97 5 -144 20 -58 75 -135 87 -123 6 6 1 23 -16 48 -45 69 -71 184 -53 234 18 49 46 215 37 224 -6 6 -13 0 -18 -15z"/>
 
 
 <path d="M516 1613 c-14 -15 -36 -75 -30 -84 3 -6 -6 -19 -20 -30 -35 -28 -69 -98 -91 -186 -20 -85 -15 -101 25 -73 18 13 30 32 34 57 14 78 48 163 76 190 29 27 32 47 5 37 -10 -4 -7 8 10 39 21 41 23 57 5 57 -4 0 -10 -3 -14 -7z"/>
 <path d="M635 1280 c-3 -5 0 -13 8 -16 23 -9 112 0 110 11 -4 14 -110 19 -118 5z"/>
 <path d="M545 1270 c-8 -12 20 -24 35 -15 6 3 8 11 5 16 -8 12 -32 12 -40 -1z"/>
 <path d="M505 1261 c-3 -6 -10 -9 -15 -6 -15 9 -64 -15 -53 -26 6 -6 19 -6 39 2 16 7 32 13 37 13 8 1 11 15 4 22 -3 3 -8 0 -12 -5z"/>
 <path d="M665 1210 c-8 -13 20 -24 45 -17 10 3 24 -1 31 -9 6 -8 15 -11 21 -8 5 3 4 12 -3 20 -6 7 -15 12 -19 9 -5 -3 -11 -1 -15 5 -8 13 -52 13 -60 0z"/>
 <path d="M984 1211 c-7 -8 -7 -38 -1 -94 23 -219 -33 -618 -85 -609 -9 1 -19 -2 -22 -7 -3 -5 -15 -7 -25 -4 -10 3 -22 0 -26 -6 -9 -16 22 -26 39 -12 7 6 16 8 19 5 3 -3 12 -2 19 2 7 5 19 9 27 10 14 3 55 43 57 56 1 5 3 10 4 13 1 3 3 8 5 13 1 4 7 20 13 35 7 16 9 33 6 38 -3 6 0 17 7 25 6 8 9 17 6 21 -4 3 -2 12 4 19 6 8 9 20 6 28 -3 8 -3 17 1 21 8 7 10 63 10 225 0 149 -2 185 -11 187 -4 1 -16 12 -25 23 -12 15 -20 18 -28 11z"/>
 <path d="M616 1181 c-10 -11 -13 -22 -8 -25 5 -3 17 3 26 13 10 11 13 22 8 25 -5 3 -17 -3 -26 -13z"/>
 <path d="M587 1133 c-8 -15 -2 -63 8 -63 12 0 16 58 5 65 -5 3 -10 2 -13 -2z"/>
 <path d="M606 1041 c-6 -10 25 -41 46 -45 7 -2 21 -7 31 -11 11 -4 23 -3 29 3 8 8 7 13 -6 18 -9 4 -20 4 -23 0 -3 -3 -21 5 -39 19 -18 14 -35 21 -38 16z"/>
 <path d="M656 933 c-4 -5 -12 -8 -17 -8 -5 0 -9 -3 -9 -7 0 -8 3 -9 18 -7 4 1 12 2 17 3 13 1 19 20 8 23 -5 2 -13 0 -17 -4z"/>
 <path d="M707 934 c-10 -10 2 -24 21 -24 9 0 29 -7 44 -14 15 -8 30 -11 33 -6 11 18 -82 60 -98 44z"/>
 <path d="M566 881 c-10 -11 -13 -22 -8 -25 5 -3 17 3 26 13 10 11 13 22 8 25 -5 3 -17 -3 -26 -13z"/>
 <path d="M530 830 c-6 -11 -8 -20 -4 -20 3 0 2 -6 -4 -13 -13 -15 -11 -84 3 -77 6 3 10 21 11 40 0 19 6 45 12 57 7 13 8 24 3 28 -6 3 -15 -4 -21 -15z"/>
 <path d="M855 720 c-4 -6 -4 -14 -1 -17 3 -3 1 -12 -5 -19 -6 -8 -6 -14 0 -18 5 -4 12 -2 16 4 3 5 3 10 -1 10 -3 0 -1 7 6 15 9 11 10 19 3 26 -8 8 -13 7 -18 -1z"/>
 <path d="M811 636 c-13 -13 -18 -26 -13 -30 5 -3 19 5 31 18 13 13 18 26 13 30 -5 3 -19 -5 -31 -18z"/>
 <path d="M437 484 c-21 -21 189 -344 213 -329 5 3 -11 37 -36 76 -26 39 -64 109 -86 155 -39 84 -71 118 -91 98z"/>
 <path d="M615 480 c-3 -5 0 -13 8 -16 24 -9 162 0 162 11 0 14 -161 19 -170 5z"/>
 </g>

<g id="layer106" fill="#a81a0d" stroke="none">
 <path d="M1061 1781 c-6 -11 -11 -39 -11 -64 0 -24 -3 -47 -6 -50 -4 -4 -8 -21 -9 -38 -3 -34 -72 -142 -88 -136 -6 2 -18 24 -26 49 -9 25 -22 53 -30 62 -20 24 -34 5 -22 -27 10 -25 9 -27 -17 -27 -30 0 -71 -23 -56 -32 5 -3 28 -11 52 -18 39 -10 46 -17 67 -63 22 -50 47 -148 40 -155 -2 -2 -12 1 -23 7 -22 12 -32 6 -32 -20 0 -12 16 -27 43 -40 23 -12 54 -30 70 -41 29 -20 30 -19 27 25 -1 17 9 41 28 65 57 73 76 121 75 197 0 39 -8 111 -17 160 -27 148 -44 185 -65 146z"/>
 <path d="M324 1695 c-11 -26 14 -127 41 -167 30 -45 30 -46 5 -126 -21 -66 -31 -150 -19 -157 12 -8 25 18 38 75 8 30 25 79 38 108 l25 54 -25 26 c-38 41 -67 99 -74 148 -6 48 -19 65 -29 39z"/>
 <path d="M706 1481 c-18 -20 -22 -96 -6 -106 22 -13 40 17 40 66 0 54 -10 67 -34 40z"/>
 <path d="M916 510 c-58 -21 -78 -47 -50 -67 17 -13 17 -17 -20 -91 -21 -42 -55 -103 -77 -134 -21 -31 -35 -59 -30 -62 16 -10 104 101 163 204 39 67 78 159 70 163 -4 2 -29 -4 -56 -13z"/>
 </g>

<g id="layer108" fill="#f9e3a9" stroke="none">
 
 
 
 
 
 
 
 
 
 
 
 
 
 
 
 
 
 
 
 
 
 <path d="M645 1279 c-60 -4 -123 -13 -140 -20 -16 -7 -34 -13 -40 -13 -6 -1 -10 -93 -10 -251 1 -204 4 -267 20 -345 10 -52 19 -111 20 -130 2 -32 5 -36 41 -42 62 -11 268 -9 326 3 29 6 60 18 69 25 9 8 18 11 22 8 3 -3 13 6 23 20 9 15 14 29 10 33 -3 3 -1 12 5 20 6 7 8 13 4 13 -4 0 -2 7 5 15 7 8 9 15 5 15 -4 0 -2 7 5 15 6 8 9 19 5 25 -9 14 -28 1 -21 -15 2 -7 2 -16 -2 -20 -4 -4 -8 -11 -8 -16 -1 -5 -3 -11 -4 -14 -1 -3 -3 -8 -5 -12 -1 -5 -7 -19 -14 -33 l-12 -25 6 25 c48 205 49 214 49 417 1 111 3 201 6 200 3 -1 5 2 5 8 0 5 -6 8 -14 7 -7 -2 -10 1 -7 6 8 13 -22 35 -66 50 -80 27 -173 37 -283 31z m123 -114 c24 -28 29 -82 11 -117 -6 -11 -26 -26 -46 -34 -86 -36 -165 53 -119 135 31 56 111 64 154 16z m20 -272 c48 -35 72 -81 72 -137 0 -66 -26 -114 -76 -144 -32 -19 -49 -22 -98 -18 -71 5 -103 26 -133 86 -60 116 27 244 159 236 29 -2 60 -11 76 -23z"/>
 <path d="M407 1224 c-38 -20 -24 -38 14 -19 16 9 27 20 24 25 -7 12 -4 13 -38 -6z"/>
 <path d="M387 624 c-4 -4 -3 -12 1 -18 4 -6 7 -14 8 -18 1 -5 3 -10 4 -13 1 -3 3 -9 4 -15 0 -5 4 -10 9 -10 4 0 10 0 13 0 4 0 1 7 -6 15 -7 8 -9 15 -5 15 4 0 1 7 -6 17 -8 9 -12 18 -11 20 6 8 -4 13 -11 7z"/>
 </g>
<g id="layer109" fill="#fdf9e0" stroke="none">
 
 
 
 
 
 
 <path d="M424 1226 c-75 -35 -76 -38 -82 -199 -6 -180 6 -285 51 -431 23 -78 25 -80 66 -94 58 -19 72 -12 60 30 -38 132 -59 438 -42 616 5 51 6 95 3 97 -4 2 -29 -6 -56 -19z"/>
 </g>
<g id="layer110" fill="#dc4531" stroke="none">
 <path d="M686 1931 c-11 -12 -16 -36 -16 -72 0 -30 -3 -91 -6 -136 l-7 -82 -60 -8 -59 -8 -33 -61 c-19 -34 -31 -64 -28 -67 3 -3 -4 -26 -16 -49 -11 -24 -28 -75 -38 -113 -11 -45 -25 -76 -39 -87 -22 -18 -37 -55 -25 -62 4 -3 26 6 50 20 117 66 379 81 505 29 41 -17 55 -7 24 18 -20 17 -21 18 -3 12 37 -12 40 -10 38 30 -4 53 -31 139 -58 179 -11 17 -36 37 -55 43 l-35 13 35 -2 c32 -3 35 0 33 22 -1 14 -6 37 -12 52 -9 23 -17 27 -68 33 -32 4 -63 8 -69 10 -10 3 -25 162 -24 257 1 43 -11 54 -34 29z"/>
 <path d="M310 1756 c-5 -15 -10 -31 -10 -36 0 -5 -5 -21 -11 -37 -14 -36 -23 -109 -23 -198 -1 -71 9 -101 63 -194 39 -67 48 -62 71 39 7 30 23 76 36 102 28 54 16 74 -15 25 l-21 -32 6 31 c5 24 0 41 -20 70 -30 46 -45 109 -44 183 0 63 -16 88 -32 47z"/>
 <path d="M1099 1426 c-1 -3 -2 -9 -3 -13 -1 -5 -10 -22 -19 -40 -10 -19 -13 -34 -7 -38 5 -3 16 8 25 25 8 16 13 30 9 30 -4 0 -1 6 5 14 8 10 9 16 1 21 -5 3 -11 4 -11 1z"/>
 <path d="M621 1176 c-28 -28 -34 -43 -34 -77 0 -36 6 -48 36 -76 52 -47 105 -47 153 1 28 28 34 42 34 76 0 36 -6 48 -36 76 -29 28 -43 34 -78 34 -35 0 -48 -6 -75 -34z m121 -33 c19 -17 24 -59 9 -82 -11 -17 -91 -23 -88 -7 1 6 -4 10 -10 9 -21 -5 -27 45 -9 72 20 30 69 34 98 8z"/>
 <path d="M1034 987 c-7 -20 -2 -47 11 -50 14 -3 19 43 6 56 -7 7 -12 6 -17 -6z"/>
 <path d="M655 928 c-42 -9 -97 -55 -121 -100 -18 -35 -18 -121 1 -157 34 -67 116 -108 192 -96 59 9 128 70 144 128 36 133 -82 256 -216 225z m108 -70 c28 -14 57 -69 57 -106 0 -75 -50 -121 -130 -117 -60 3 -62 4 -56 14 7 10 -28 44 -36 35 -3 -3 -11 11 -18 30 -13 40 -5 97 13 93 7 -1 11 5 9 14 -2 17 29 43 63 52 24 6 73 -2 98 -15z"/>
 <path d="M425 520 c-9 -14 12 -48 32 -54 10 -3 33 -39 51 -80 36 -79 137 -242 165 -265 25 -20 41 -9 92 61 25 35 51 63 58 63 7 1 11 7 9 15 -2 8 15 53 38 102 40 84 45 113 16 102 -9 -3 -13 1 -13 13 1 10 -3 17 -9 16 -111 -20 -328 -8 -401 22 -19 8 -35 10 -38 5z"/>
 </g>

</svg>